<?xml version="1.0" encoding="UTF-8"?>
<svg xmlns="http://www.w3.org/2000/svg" xmlns:xlink="http://www.w3.org/1999/xlink" width="1231.95pt" height="165.66pt" viewBox="0 0 1231.95 165.66" version="1.1">
<defs>
<clipPath id="clip1">
  <path d="M 1144 36 L 1231.949219 36 L 1231.949219 165.660156 L 1144 165.660156 Z M 1144 36 "/>
</clipPath>
</defs>
<g id="surface1">
<path style=" stroke:none;fill-rule:nonzero;fill:rgb(34.498596%,66.699219%,27.49939%);fill-opacity:1;" d="M 397.664063 84.234375 C 397.550781 98.800781 397.550781 106.082031 397.664063 106.082031 L 397.828125 106.082031 C 398.710938 106.304688 399.675781 106.523438 400.722656 106.742188 C 401.773438 106.964844 403.621094 107.214844 406.269531 107.488281 C 408.917969 107.765625 411.371094 107.820313 413.632813 107.652344 C 415.894531 107.488281 418.433594 106.992188 421.246094 106.164063 C 424.058594 105.335938 426.429688 104.097656 428.363281 102.441406 C 430.289063 100.785156 431.921875 98.414063 433.246094 95.324219 C 434.570313 92.238281 435.230469 88.597656 435.230469 84.402344 C 435.230469 79.988281 434.675781 76.15625 433.574219 72.898438 C 432.472656 69.648438 431.035156 67.105469 429.273438 65.285156 C 427.507813 63.46875 425.410156 62.003906 422.984375 60.902344 C 420.554688 59.800781 418.210938 59.136719 415.949219 58.914063 C 413.6875 58.695313 411.289063 58.667969 408.753906 58.832031 C 406.210938 58.996094 404.089844 59.246094 402.378906 59.578125 C 400.667969 59.90625 399.09375 60.296875 397.664063 60.734375 Z M 397.664063 36.902344 L 387.734375 48.324219 C 389.9375 47.554688 391.953125 46.449219 393.773438 45.015625 C 395.59375 43.582031 397.027344 42.394531 398.078125 41.453125 C 399.125 40.519531 401.136719 39.664063 404.117188 38.890625 C 407.09375 38.117188 411.011719 37.730469 415.867188 37.730469 C 420.277344 37.730469 424.527344 38.171875 428.609375 39.054688 C 432.691406 39.941406 436.71875 41.484375 440.691406 43.691406 C 444.664063 45.898438 448.109375 48.652344 451.035156 51.964844 C 453.957031 55.273438 456.304688 59.550781 458.070313 64.789063 C 459.832031 70.03125 460.71875 75.960938 460.71875 82.582031 C 460.71875 99.683594 457.019531 111.902344 449.628906 119.238281 C 442.234375 126.578125 430.042969 130.242188 413.054688 130.242188 C 407.648438 130.242188 402.792969 129.96875 398.492188 129.417969 C 394.1875 128.867188 390.765625 128.257813 388.230469 127.597656 C 385.691406 126.933594 383.375 126.023438 381.277344 124.867188 C 379.179688 123.707031 377.746094 122.769531 376.976563 122.050781 C 376.203125 121.335938 375.347656 120.398438 374.410156 119.238281 C 373.472656 118.078125 372.945313 117.445313 372.839844 117.335938 L 372.839844 19.691406 C 372.839844 15.28125 373.359375 11.914063 374.410156 9.597656 C 375.457031 7.28125 376.917969 5.820313 378.796875 5.210938 C 380.671875 4.605469 382.628906 4.300781 384.671875 4.300781 C 386.710938 4.300781 388.972656 4.136719 391.457031 3.804688 C 393.9375 3.472656 396.007813 2.703125 397.664063 1.488281 L 397.664063 36.902344 "/>
<path style=" stroke:none;fill-rule:nonzero;fill:rgb(34.498596%,66.699219%,27.49939%);fill-opacity:1;" d="M 501.035156 79.933594 C 502.910156 78.609375 505.972656 77.726563 510.21875 77.285156 C 514.464844 76.847656 518.4375 76.597656 522.136719 76.539063 C 525.832031 76.488281 529.113281 75.714844 531.980469 74.222656 C 534.851563 72.734375 536.226563 70.390625 536.121094 67.191406 C 536.121094 64.324219 533.859375 61.949219 529.335938 60.074219 C 523.046875 57.425781 516.921875 57.207031 510.964844 59.410156 C 502.6875 62.390625 499.378906 69.234375 501.035156 79.933594 Z M 501.863281 97.308594 C 501.863281 100.730469 503.570313 103.296875 506.992188 105.007813 C 510.410156 106.71875 514.742188 107.597656 519.984375 107.652344 C 525.222656 107.710938 530.351563 107.488281 535.375 106.992188 C 540.394531 106.496094 545.140625 105.914063 549.609375 105.253906 C 554.074219 104.59375 556.640625 104.261719 557.304688 104.261719 C 557.742188 113.859375 555.839844 120.644531 551.59375 124.617188 C 547.34375 128.589844 538.820313 130.574219 526.023438 130.574219 C 508.371094 130.574219 495.40625 126.992188 487.132813 119.816406 C 478.859375 112.648438 474.722656 100.234375 474.722656 82.582031 C 474.722656 73.753906 475.851563 66.28125 478.113281 60.15625 C 480.371094 54.03125 483.683594 49.371094 488.042969 46.171875 C 492.398438 42.972656 497.253906 40.710938 502.605469 39.386719 C 507.957031 38.0625 514.21875 37.398438 521.390625 37.398438 C 535.070313 37.398438 545.140625 40.296875 551.59375 46.089844 C 558.046875 51.882813 561.273438 61.121094 561.273438 73.808594 C 561.273438 78.667969 560.335938 82.554688 558.460938 85.476563 C 556.585938 88.402344 554.128906 90.359375 551.097656 91.351563 C 548.0625 92.34375 544.421875 93.0625 540.175781 93.503906 C 535.925781 93.945313 531.734375 94.082031 527.597656 93.917969 C 523.460938 93.753906 518.988281 93.945313 514.191406 94.496094 C 509.390625 95.050781 505.28125 95.984375 501.863281 97.308594 "/>
<path style=" stroke:none;fill-rule:nonzero;fill:rgb(34.498596%,66.699219%,27.49939%);fill-opacity:1;" d="M 627.917969 107.570313 C 629.460938 112.429688 629.679688 116.894531 628.578125 120.976563 C 627.476563 125.058594 625.601563 127.761719 622.949219 129.085938 C 617.214844 130.847656 611.613281 131.375 606.152344 130.65625 C 600.691406 129.9375 595.835938 128.425781 591.589844 126.105469 C 587.34375 123.789063 583.894531 120.425781 581.246094 116.011719 C 578.597656 111.597656 577.273438 106.578125 577.273438 100.953125 L 577.273438 29.789063 C 577.164063 26.367188 577.714844 23.527344 578.929688 21.265625 C 580.144531 19.003906 581.964844 17.375 584.390625 16.382813 C 586.816406 15.390625 589.410156 14.757813 592.171875 14.480469 C 594.925781 14.203125 598.234375 14.175781 602.101563 14.398438 L 602.101563 38.394531 L 630.566406 38.394531 C 630.566406 38.726563 630.566406 39.140625 630.566406 39.636719 C 630.566406 40.132813 630.453125 41.152344 630.234375 42.695313 C 630.011719 44.242188 629.679688 45.730469 629.242188 47.164063 C 628.800781 48.597656 628.054688 50.171875 627.007813 51.882813 C 625.957031 53.59375 624.714844 55.054688 623.28125 56.265625 C 621.847656 57.484375 619.914063 58.5 617.492188 59.328125 C 615.0625 60.15625 612.359375 60.570313 609.382813 60.570313 C 606.734375 60.570313 604.304688 60.625 602.101563 60.734375 L 602.265625 98.964844 C 602.152344 101.945313 602.761719 104.234375 604.085938 105.832031 C 605.410156 107.433594 607.199219 108.371094 609.464844 108.644531 C 611.726563 108.921875 613.988281 108.976563 616.25 108.8125 C 618.507813 108.644531 620.824219 108.398438 623.199219 108.066406 C 625.570313 107.734375 627.144531 107.570313 627.917969 107.570313 "/>
<path style=" stroke:none;fill-rule:nonzero;fill:rgb(34.498596%,66.699219%,27.49939%);fill-opacity:1;" d="M 695.554688 107.570313 C 697.097656 112.429688 697.316406 116.894531 696.214844 120.976563 C 695.113281 125.058594 693.238281 127.761719 690.589844 129.085938 C 684.851563 130.847656 679.253906 131.375 673.789063 130.65625 C 668.332031 129.9375 663.472656 128.425781 659.226563 126.105469 C 654.980469 123.789063 651.53125 120.425781 648.882813 116.011719 C 646.234375 111.597656 644.914063 106.578125 644.914063 100.953125 L 644.914063 29.789063 C 644.800781 26.367188 645.351563 23.527344 646.566406 21.265625 C 647.78125 19.003906 649.601563 17.375 652.027344 16.382813 C 654.453125 15.390625 657.046875 14.757813 659.808594 14.480469 C 662.5625 14.203125 665.871094 14.175781 669.738281 14.398438 L 669.738281 38.394531 L 698.203125 38.394531 C 698.203125 38.726563 698.203125 39.140625 698.203125 39.636719 C 698.203125 40.132813 698.089844 41.152344 697.871094 42.695313 C 697.648438 44.242188 697.316406 45.730469 696.878906 47.164063 C 696.4375 48.597656 695.691406 50.171875 694.644531 51.882813 C 693.59375 53.59375 692.351563 55.054688 690.917969 56.265625 C 689.484375 57.484375 687.554688 58.5 685.128906 59.328125 C 682.699219 60.15625 679.996094 60.570313 677.019531 60.570313 C 674.371094 60.570313 671.941406 60.625 669.738281 60.734375 L 669.902344 98.964844 C 669.789063 101.945313 670.398438 104.234375 671.722656 105.832031 C 673.046875 107.433594 674.839844 108.371094 677.101563 108.644531 C 679.363281 108.921875 681.625 108.976563 683.886719 108.8125 C 686.144531 108.644531 688.464844 108.398438 690.835938 108.066406 C 693.210938 107.734375 694.78125 107.570313 695.554688 107.570313 "/>
<path style=" stroke:none;fill-rule:nonzero;fill:rgb(34.498596%,66.699219%,27.49939%);fill-opacity:1;" d="M 734.941406 79.933594 C 736.816406 78.609375 739.878906 77.726563 744.128906 77.285156 C 748.371094 76.847656 752.34375 76.597656 756.042969 76.539063 C 759.734375 76.488281 763.019531 75.714844 765.890625 74.222656 C 768.757813 72.734375 770.132813 70.390625 770.027344 67.191406 C 770.027344 64.324219 767.765625 61.949219 763.242188 60.074219 C 756.953125 57.425781 750.832031 57.207031 744.871094 59.410156 C 736.597656 62.390625 733.285156 69.234375 734.941406 79.933594 Z M 735.769531 97.308594 C 735.769531 100.730469 737.476563 103.296875 740.898438 105.007813 C 744.316406 106.71875 748.648438 107.597656 753.890625 107.652344 C 759.128906 107.710938 764.261719 107.488281 769.28125 106.992188 C 774.300781 106.496094 779.046875 105.914063 783.515625 105.253906 C 787.984375 104.59375 790.546875 104.261719 791.210938 104.261719 C 791.648438 113.859375 789.746094 120.644531 785.5 124.617188 C 781.25 128.589844 772.726563 130.574219 759.933594 130.574219 C 742.277344 130.574219 729.3125 126.992188 721.039063 119.816406 C 712.765625 112.648438 708.628906 100.234375 708.628906 82.582031 C 708.628906 73.753906 709.757813 66.28125 712.019531 60.15625 C 714.28125 54.03125 717.589844 49.371094 721.949219 46.171875 C 726.308594 42.972656 731.160156 40.710938 736.515625 39.386719 C 741.863281 38.0625 748.121094 37.398438 755.300781 37.398438 C 768.976563 37.398438 779.046875 40.296875 785.5 46.089844 C 791.957031 51.882813 795.179688 61.121094 795.179688 73.808594 C 795.179688 78.667969 794.242188 82.554688 792.367188 85.476563 C 790.492188 88.402344 788.039063 90.359375 785.003906 91.351563 C 781.96875 92.34375 778.328125 93.0625 774.082031 93.503906 C 769.832031 93.945313 765.640625 94.082031 761.503906 93.917969 C 757.363281 93.753906 752.898438 93.945313 748.097656 94.496094 C 743.300781 95.050781 739.1875 95.984375 735.769531 97.308594 "/>
<path style=" stroke:none;fill-rule:nonzero;fill:rgb(34.498596%,66.699219%,27.49939%);fill-opacity:1;" d="M 873.757813 37.234375 C 873.648438 37.457031 873.675781 38.613281 873.839844 40.710938 C 874.003906 42.808594 873.976563 44.820313 873.757813 46.75 C 873.535156 48.683594 873.097656 50.75 872.433594 52.957031 C 871.773438 55.164063 870.417969 56.929688 868.378906 58.253906 C 866.335938 59.578125 863.714844 60.238281 860.515625 60.238281 C 855.882813 60.238281 852.296875 60.402344 849.761719 60.734375 C 847.222656 61.066406 844.964844 61.894531 842.976563 63.21875 C 840.988281 64.542969 839.664063 66.417969 839.003906 68.84375 C 838.339844 71.273438 838.011719 74.582031 838.011719 78.773438 L 838.011719 131.734375 C 836.023438 130.296875 833.402344 129.167969 830.152344 128.339844 C 826.894531 127.511719 824.132813 126.878906 821.875 126.4375 C 819.613281 125.996094 817.597656 124.699219 815.832031 122.546875 C 814.066406 120.398438 813.183594 117.28125 813.183594 113.199219 L 813.183594 68.84375 C 813.183594 68.183594 813.210938 67.273438 813.269531 66.113281 C 813.324219 64.957031 813.515625 63.359375 813.847656 61.3125 C 814.179688 59.273438 814.730469 57.234375 815.503906 55.191406 C 816.273438 53.152344 817.433594 51.027344 818.980469 48.820313 C 820.523438 46.613281 822.398438 44.683594 824.605469 43.027344 C 826.8125 41.371094 829.652344 39.996094 833.128906 38.890625 C 836.605469 37.789063 840.492188 37.234375 844.796875 37.234375 C 852.1875 37.234375 857.648438 37.234375 861.179688 37.234375 C 864.710938 37.234375 866.644531 37.234375 866.972656 37.234375 C 867.304688 37.234375 867.9375 37.234375 868.875 37.234375 C 869.8125 37.234375 871.441406 37.234375 873.757813 37.234375 "/>
<path style=" stroke:none;fill-rule:nonzero;fill:rgb(44.299316%,44.299316%,44.299316%);fill-opacity:1;" d="M 916.777344 40.378906 C 922.1875 38.171875 931.234375 37.070313 943.921875 37.070313 C 950.101563 37.070313 955.394531 38.117188 959.808594 40.214844 C 964.21875 42.3125 967.421875 44.710938 969.410156 47.414063 C 971.394531 50.117188 972.910156 53.207031 973.960938 56.679688 C 975.007813 60.15625 975.585938 62.75 975.699219 64.460938 C 975.804688 66.171875 975.804688 67.632813 975.699219 68.84375 L 975.699219 129.085938 C 959.148438 131.289063 950.871094 126.164063 950.871094 113.695313 C 950.871094 109.058594 950.871094 102.992188 950.871094 95.488281 C 950.980469 79.050781 950.210938 69.039063 948.558594 65.453125 C 946.902344 61.867188 941.710938 59.964844 933 59.742188 C 927.59375 59.742188 922.1875 60.734375 916.777344 62.722656 L 916.777344 113.695313 C 917 120.3125 914.933594 124.644531 910.574219 126.6875 C 906.214844 128.730469 900.007813 129.523438 891.953125 129.085938 L 891.953125 -0.00390625 C 893.941406 1.433594 896.5625 2.289063 899.816406 2.5625 C 903.070313 2.839844 905.828125 2.976563 908.09375 2.976563 C 910.351563 2.976563 912.367188 4.164063 914.132813 6.535156 C 915.894531 8.910156 916.777344 12.796875 916.777344 18.203125 L 916.777344 40.378906 "/>
<path style=" stroke:none;fill-rule:nonzero;fill:rgb(44.299316%,44.299316%,44.299316%);fill-opacity:1;" d="M 1020.511719 79.933594 C 1022.378906 78.609375 1025.449219 77.726563 1029.691406 77.285156 C 1033.941406 76.847656 1037.910156 76.597656 1041.609375 76.539063 C 1045.308594 76.488281 1048.589844 75.714844 1051.460938 74.222656 C 1054.328125 72.734375 1055.699219 70.390625 1055.601563 67.191406 C 1055.601563 64.324219 1053.328125 61.949219 1048.808594 60.074219 C 1042.519531 57.425781 1036.398438 57.207031 1030.441406 59.410156 C 1022.160156 62.390625 1018.851563 69.234375 1020.511719 79.933594 Z M 1021.339844 97.308594 C 1021.339844 100.730469 1023.050781 103.296875 1026.46875 105.007813 C 1029.890625 106.71875 1034.21875 107.597656 1039.460938 107.652344 C 1044.699219 107.710938 1049.828125 107.488281 1054.851563 106.992188 C 1059.871094 106.496094 1064.621094 105.914063 1069.078125 105.253906 C 1073.550781 104.59375 1076.121094 104.261719 1076.78125 104.261719 C 1077.21875 113.859375 1075.308594 120.644531 1071.070313 124.617188 C 1066.820313 128.589844 1058.300781 130.574219 1045.5 130.574219 C 1027.851563 130.574219 1014.878906 126.992188 1006.609375 119.816406 C 998.332031 112.648438 994.195313 100.234375 994.195313 82.582031 C 994.195313 73.753906 995.328125 66.28125 997.589844 60.15625 C 999.847656 54.03125 1003.160156 49.371094 1007.519531 46.171875 C 1011.878906 42.972656 1016.730469 40.710938 1022.078125 39.386719 C 1027.429688 38.0625 1033.691406 37.398438 1040.871094 37.398438 C 1054.550781 37.398438 1064.621094 40.296875 1071.070313 46.089844 C 1077.519531 51.882813 1080.75 61.121094 1080.75 73.808594 C 1080.75 78.667969 1079.808594 82.554688 1077.941406 85.476563 C 1076.058594 88.402344 1073.609375 90.359375 1070.570313 91.351563 C 1067.539063 92.34375 1063.898438 93.0625 1059.648438 93.503906 C 1055.398438 93.945313 1051.210938 94.082031 1047.070313 93.917969 C 1042.941406 93.753906 1038.46875 93.945313 1033.671875 94.496094 C 1028.871094 95.050781 1024.761719 95.984375 1021.339844 97.308594 "/>
<path style=" stroke:none;fill-rule:nonzero;fill:rgb(44.299316%,44.299316%,44.299316%);fill-opacity:1;" d="M 1124.410156 113.695313 C 1124.628906 120.3125 1122.558594 124.644531 1118.199219 126.6875 C 1113.839844 128.730469 1107.640625 129.523438 1099.578125 129.085938 L 1099.578125 -0.00390625 C 1101.570313 1.433594 1104.191406 2.289063 1107.449219 2.5625 C 1110.699219 2.839844 1113.460938 2.976563 1115.71875 2.976563 C 1117.980469 2.976563 1119.988281 4.164063 1121.761719 6.535156 C 1123.519531 8.910156 1124.410156 12.796875 1124.410156 18.203125 L 1124.410156 113.695313 "/>
<g clip-path="url(#clip1)" clip-rule="nonzero">
<path style=" stroke:none;fill-rule:nonzero;fill:rgb(44.299316%,44.299316%,44.299316%);fill-opacity:1;" d="M 1168.890625 82.910156 L 1168.890625 106.410156 C 1170.660156 106.964844 1172.558594 107.40625 1174.601563 107.734375 C 1176.640625 108.066406 1179.210938 108.34375 1182.300781 108.5625 C 1185.390625 108.785156 1188.261719 108.453125 1190.898438 107.570313 C 1193.550781 106.6875 1196.089844 105.421875 1198.519531 103.765625 C 1200.941406 102.109375 1202.871094 99.460938 1204.308594 95.820313 C 1205.738281 92.179688 1206.460938 87.824219 1206.460938 82.746094 C 1206.460938 78.554688 1205.769531 74.914063 1204.390625 71.824219 C 1203.011719 68.734375 1201.410156 66.363281 1199.589844 64.707031 C 1197.769531 63.054688 1195.371094 61.8125 1192.390625 60.984375 C 1189.410156 60.15625 1186.929688 59.660156 1184.949219 59.492188 C 1182.960938 59.328125 1180.480469 59.410156 1177.5 59.742188 C 1174.519531 60.074219 1172.699219 60.296875 1172.039063 60.402344 C 1171.371094 60.515625 1170.378906 60.734375 1169.058594 61.066406 L 1168.890625 61.066406 C 1168.78125 61.066406 1168.78125 68.347656 1168.890625 82.910156 Z M 1168.890625 165.660156 C 1166.910156 164.226563 1164.289063 163.367188 1161.03125 163.09375 C 1157.78125 162.820313 1155.019531 162.683594 1152.761719 162.683594 C 1150.488281 162.683594 1148.480469 161.496094 1146.71875 159.121094 C 1144.949219 156.75 1144.070313 152.859375 1144.070313 147.457031 L 1144.070313 49.8125 C 1144.179688 49.703125 1144.699219 49.066406 1145.640625 47.910156 C 1146.578125 46.75 1147.429688 45.839844 1148.210938 45.179688 C 1148.980469 44.515625 1150.410156 43.582031 1152.511719 42.367188 C 1154.601563 41.152344 1156.921875 40.214844 1159.460938 39.554688 C 1162 38.890625 1165.421875 38.285156 1169.71875 37.730469 C 1174.019531 37.179688 1178.878906 36.902344 1184.28125 36.902344 C 1201.269531 36.902344 1213.46875 40.574219 1220.859375 47.910156 C 1228.25 55.25 1231.949219 67.464844 1231.949219 84.566406 C 1231.949219 92.84375 1230.621094 100.015625 1227.980469 106.082031 C 1225.328125 112.152344 1221.769531 116.8125 1217.300781 120.066406 C 1212.828125 123.320313 1208.089844 125.691406 1203.070313 127.183594 C 1198.050781 128.671875 1192.71875 129.417969 1187.101563 129.417969 C 1179.488281 129.417969 1173.421875 128.644531 1168.890625 127.101563 L 1168.890625 165.660156 "/>
</g>
<path style=" stroke:none;fill-rule:evenodd;fill:rgb(34.498596%,66.699219%,27.49939%);fill-opacity:1;" d="M 327.703125 42.035156 C 327.703125 42.035156 269.316406 4.25 218.054688 21.039063 C 200.863281 26.660156 186.679688 37.699219 175.402344 49.890625 C 169.0625 56.746094 161.757813 72.398438 139.8125 80.914063 C 134.988281 82.785156 129.570313 84.742188 122.75 85.585938 C 112.828125 86.8125 106.324219 89.199219 98.027344 91.320313 C 94.558594 92.203125 87.746094 94.199219 87.269531 89.847656 C 86.941406 86.953125 90.019531 86.160156 92.660156 85.394531 C 98.285156 83.757813 102.304688 82.355469 107.804688 80.449219 C 109.71875 79.78125 114.746094 78.964844 114.140625 76.957031 C 113.730469 75.589844 110.441406 76.417969 108.875 76.726563 C 99.144531 78.617188 90.296875 80.296875 80.449219 81.824219 C 76.476563 82.449219 71.648438 83.179688 70.957031 79.691406 C 69.9375 74.519531 76.4375 74.402344 80.921875 73.621094 C 89.199219 72.1875 95.742188 70.75 103.699219 69.183594 C 104.960938 68.9375 106.703125 68.894531 107.238281 67.492188 C 105.8125 66.523438 103.71875 67.144531 101.972656 67.40625 C 91.269531 68.957031 80.015625 70.625 69.625 72.773438 C 66.167969 73.484375 62.628906 73.789063 61.890625 70.660156 C 60.628906 65.351563 67.503906 64.492188 71.921875 63.421875 C 81.335938 61.140625 89.234375 60.398438 99.789063 58.644531 C 101.234375 58.394531 104.488281 58.066406 104.480469 56.863281 C 104.488281 55.191406 99.402344 55.714844 97.691406 55.714844 C 90.003906 55.710938 84.371094 56.308594 75.882813 57.167969 C 71.25 57.632813 65.351563 59.125 64.789063 54.984375 C 63.917969 48.554688 76.660156 49.203125 82.175781 48.574219 C 92.683594 47.355469 102.667969 46.980469 112.277344 44.519531 C 116.695313 43.390625 122.59375 41.933594 122.996094 38.839844 C 123.402344 35.664063 118.996094 32.125 117.523438 31.171875 C 115.148438 29.652344 112.1875 28.570313 109.773438 26.734375 C 107.402344 24.910156 104.914063 22.777344 103.671875 20.417969 C 102.300781 17.839844 101.828125 11.867188 105.703125 11.664063 C 107.242188 11.582031 110.765625 14.574219 111.9375 15.34375 C 114.171875 16.796875 116.199219 17.859375 118.03125 19.167969 C 121.441406 21.601563 123.699219 24.351563 127.101563 26.011719 C 129.648438 27.25 132.175781 28.164063 134.636719 29.449219 C 137.019531 30.707031 139.429688 31.941406 141.761719 33.355469 C 144.199219 34.84375 146.449219 38.230469 149.679688 39.9375 C 167.582031 49.34375 177.03125 31.722656 172.695313 29.476563 C 150.3125 17.855469 113.488281 2.59375 91.714844 4.804688 C 38.050781 10.242188 0 68.460938 0 68.460938 C 0 68.460938 48.960938 117.851563 102.621094 112.414063 C 130.261719 109.621094 153.730469 92.824219 170.011719 77.195313 C 169.59375 76.691406 185.207031 58.210938 204.132813 51.550781 C 213.558594 48.230469 219.398438 44.507813 227.0625 40.664063 C 230.253906 39.054688 236.484375 35.652344 237.882813 39.796875 C 238.8125 42.558594 235.976563 43.988281 233.570313 45.296875 C 228.417969 48.097656 224.789063 50.328125 219.824219 53.375 C 218.105469 54.429688 213.363281 56.300781 214.382813 58.136719 C 215.074219 59.386719 218.109375 57.875 219.578125 57.234375 C 228.675781 53.3125 236.964844 49.773438 246.257813 46.179688 C 250 44.714844 254.5625 42.976563 255.984375 46.230469 C 258.089844 51.070313 251.769531 52.570313 247.539063 54.292969 C 239.769531 57.46875 233.683594 60.265625 226.25 63.5 C 225.066406 64.011719 223.375 64.421875 223.152344 65.90625 C 224.75 66.550781 226.65625 65.496094 228.320313 64.867188 C 238.4375 61.058594 249.074219 57.027344 258.765625 52.703125 C 261.984375 51.28125 265.382813 50.222656 266.773438 53.125 C 269.140625 58.03125 262.609375 60.351563 258.523438 62.335938 C 249.816406 66.574219 242.257813 68.988281 232.324219 72.957031 C 230.957031 73.511719 227.855469 74.523438 228.113281 75.699219 C 228.460938 77.339844 233.320313 75.738281 234.996094 75.371094 C 242.507813 73.734375 247.878906 71.941406 255.984375 69.296875 C 260.410156 67.84375 265.863281 65.128906 267.285156 69.046875 C 269.515625 75.144531 256.929688 77.238281 251.671875 79.03125 C 241.671875 82.464844 232 84.972656 223.136719 89.425781 C 219.066406 91.472656 213.617188 94.15625 213.890625 97.265625 C 214.164063 100.453125 219.226563 102.972656 220.867188 103.585938 C 223.515625 104.5625 226.636719 104.984375 229.382813 106.277344 C 232.09375 107.539063 234.984375 109.089844 236.699219 111.128906 C 238.59375 113.355469 240.320313 119.089844 236.582031 120.113281 C 235.101563 120.523438 231.015625 118.355469 229.714844 117.855469 C 227.210938 116.914063 225.007813 116.308594 222.933594 115.425781 C 219.085938 113.777344 216.296875 111.566406 212.613281 110.675781 C 209.863281 110.011719 207.195313 109.65625 204.515625 108.925781 C 201.921875 108.210938 199.308594 107.519531 196.726563 106.636719 C 194.023438 105.703125 190.492188 104.101563 187.582031 101.902344 C 186.570313 101.144531 184.628906 99.722656 182.449219 100.351563 C 168.015625 100.6875 153.816406 108.585938 145.761719 122.472656 C 137.90625 136.027344 137.878906 151.832031 144.265625 164.378906 C 142.921875 154.914063 144.683594 144.777344 149.960938 135.679688 C 154.980469 127.019531 162.394531 120.671875 170.761719 117.03125 C 192.414063 125.589844 223.144531 133.191406 251.71875 123.828125 C 302.976563 107.039063 327.703125 42.035156 327.703125 42.035156 "/>
</g>
</svg>
